<svg xmlns="http://www.w3.org/2000/svg" xmlns:xlink="http://www.w3.org/1999/xlink" contentStyleType="text/css" height="510px" preserveAspectRatio="none" style="width:1229px;height:510px;background:#FFFFFF;" version="1.1" viewBox="0 0 1229 510" width="1229px" zoomAndPan="magnify"><defs/><g><!--cluster public--><g id="cluster_public"><path d="M741,53.5 L783.2207,53.5 A3.75,3.75 0 0 1 785.7207,56 L792.7207,77.1094 L829,77.1094 A2.5,2.5 0 0 1 831.5,79.6094 L831.5,294 A2.5,2.5 0 0 1 829,296.5 L741,296.5 A2.5,2.5 0 0 1 738.5,294 L738.5,56 A2.5,2.5 0 0 1 741,53.5 " fill="none" style="stroke:#000000;stroke-width:1.5;"/><line style="stroke:#000000;stroke-width:1.5;" x1="738.5" x2="792.7207" y1="77.1094" y2="77.1094"/><text fill="#000000" font-family="sans-serif" font-size="14" font-weight="bold" lengthAdjust="spacing" textLength="41.2207" x="742.5" y="70.0332">public</text></g><!--cluster employee--><g id="cluster_employee"><path d="M357.5,120.5 L423.0859,120.5 A3.75,3.75 0 0 1 425.5859,123 L432.5859,144.1094 L439.5,144.1094 A2.5,2.5 0 0 1 442,146.6094 L442,361 A2.5,2.5 0 0 1 439.5,363.5 L357.5,363.5 A2.5,2.5 0 0 1 355,361 L355,123 A2.5,2.5 0 0 1 357.5,120.5 " fill="none" style="stroke:#000000;stroke-width:1.5;"/><line style="stroke:#000000;stroke-width:1.5;" x1="355" x2="432.5859" y1="144.1094" y2="144.1094"/><text fill="#000000" font-family="sans-serif" font-size="14" font-weight="bold" lengthAdjust="spacing" textLength="64.5859" x="359" y="137.0332">employee</text></g><!--cluster ManageInventory--><g id="cluster_ManageInventory"><rect fill="none" height="364" rx="2.5" ry="2.5" style="stroke:#181818;stroke-width:1.0;" width="207" x="120" y="114.5"/><text fill="#000000" font-family="sans-serif" font-size="14" font-weight="bold" lengthAdjust="spacing" textLength="115.1377" x="165.9312" y="131.0332">ManageInventory</text></g><!--cluster AccountManagement--><g id="cluster_AccountManagement"><rect fill="none" height="227" rx="2.5" ry="2.5" style="stroke:#181818;stroke-width:1.0;" width="204" x="486" y="20.5"/><text fill="#000000" font-family="sans-serif" font-size="14" font-weight="bold" lengthAdjust="spacing" textLength="141.5723" x="517.2139" y="37.0332">AccountManagement</text></g><!--cluster Invoicing--><g id="cluster_Invoicing"><rect fill="none" height="233" rx="2.5" ry="2.5" style="stroke:#181818;stroke-width:1.0;" width="236" x="470" y="271.5"/><text fill="#000000" font-family="sans-serif" font-size="14" font-weight="bold" lengthAdjust="spacing" textLength="61.4482" x="557.2759" y="288.0332">Invoicing</text></g><!--entity Guest--><g id="elem_Guest"><ellipse cx="785.1758" cy="98" fill="#F1F1F1" rx="8" ry="8" style="stroke:#181818;stroke-width:0.5;"/><path d="M785.1758,106 L785.1758,133 M772.1758,114 L798.1758,114 M785.1758,133 L772.1758,148 M785.1758,133 L798.1758,148 " fill="none" style="stroke:#181818;stroke-width:0.5;"/><text fill="#000000" font-family="sans-serif" font-size="14" lengthAdjust="spacing" textLength="37.3516" x="766.5" y="164.0332">Guest</text></g><!--entity Customer--><g id="elem_Customer"><ellipse cx="784.8413" cy="211" fill="#F1F1F1" rx="8" ry="8" style="stroke:#181818;stroke-width:0.5;"/><path d="M784.8413,219 L784.8413,246 M771.8413,227 L797.8413,227 M784.8413,246 L771.8413,261 M784.8413,246 L797.8413,261 " fill="none" style="stroke:#181818;stroke-width:0.5;"/><text fill="#000000" font-family="sans-serif" font-size="14" lengthAdjust="spacing" textLength="60.6826" x="754.5" y="277.0332">Customer</text></g><!--entity Clerk--><g id="elem_Clerk"><ellipse cx="398.3345" cy="278" fill="#F1F1F1" rx="8" ry="8" style="stroke:#181818;stroke-width:0.5;"/><path d="M398.3345,286 L398.3345,313 M385.3345,294 L411.3345,294 M398.3345,313 L385.3345,328 M398.3345,313 L411.3345,328 " fill="none" style="stroke:#181818;stroke-width:0.5;"/><text fill="#000000" font-family="sans-serif" font-size="14" lengthAdjust="spacing" textLength="32.6689" x="382" y="344.0332">Clerk</text></g><!--entity Manager--><g id="elem_Manager"><ellipse cx="398.6274" cy="165" fill="#F1F1F1" rx="8" ry="8" style="stroke:#181818;stroke-width:0.5;"/><path d="M398.6274,173 L398.6274,200 M385.6274,181 L411.6274,181 M398.6274,200 L385.6274,215 M398.6274,200 L411.6274,215 " fill="none" style="stroke:#181818;stroke-width:0.5;"/><text fill="#000000" font-family="sans-serif" font-size="14" lengthAdjust="spacing" textLength="55.2549" x="371" y="231.0332">Manager</text></g><g id="elem_ViewStock"><ellipse cx="223.636" cy="308.5647" fill="#F1F1F1" rx="57.636" ry="15.5647" style="stroke:#181818;stroke-width:0.5;"/><text fill="#000000" font-family="sans-serif" font-size="14" lengthAdjust="spacing" textLength="64.5723" x="188.3498" y="313.0813">view stock</text></g><g id="elem_UpdateStock"><ellipse cx="223.7123" cy="241.3425" fill="#F1F1F1" rx="67.2123" ry="15.8425" style="stroke:#181818;stroke-width:0.5;"/><text fill="#000000" font-family="sans-serif" font-size="14" lengthAdjust="spacing" textLength="79.3857" x="181.0194" y="245.8591">update stock</text></g><g id="elem_AddNewbook"><ellipse cx="223.3663" cy="445.3733" fill="#F1F1F1" rx="69.8663" ry="16.3733" style="stroke:#181818;stroke-width:0.5;"/><text fill="#000000" font-family="sans-serif" font-size="14" lengthAdjust="spacing" textLength="87.1787" x="176.7769" y="449.8899">add new book</text></g><g id="elem_ViewItemHistory"><ellipse cx="223.2763" cy="376.5553" fill="#F1F1F1" rx="75.7763" ry="17.5553" style="stroke:#181818;stroke-width:0.5;"/><text fill="#000000" font-family="sans-serif" font-size="14" lengthAdjust="spacing" textLength="103.4688" x="168.5419" y="381.0719">view item history</text></g><g id="elem_DeprecateItem"><ellipse cx="223.5157" cy="170.4031" fill="#F1F1F1" rx="87.5157" ry="19.9031" style="stroke:#181818;stroke-width:0.5;"/><text fill="#000000" font-family="sans-serif" font-size="14" lengthAdjust="spacing" textLength="132.2891" x="157.3711" y="174.1316">deprecate item listing</text></g><g id="elem_CreateClerkAccount"><ellipse cx="587.8588" cy="76.5718" fill="#F1F1F1" rx="85.8588" ry="19.5718" style="stroke:#181818;stroke-width:0.5;"/><text fill="#000000" font-family="sans-serif" font-size="14" lengthAdjust="spacing" textLength="128.3926" x="523.6625" y="80.3003">create Clerk account</text></g><g id="elem_ResetPassword"><ellipse cx="588.1224" cy="214.4245" fill="#F1F1F1" rx="72.6224" ry="16.9245" style="stroke:#181818;stroke-width:0.5;"/><text fill="#000000" font-family="sans-serif" font-size="14" lengthAdjust="spacing" textLength="94.9307" x="537.6571" y="218.9411">reset password</text></g><g id="elem_CreateOwnAccount"><ellipse cx="588.0874" cy="146.4597" fill="#F1F1F1" rx="45.0874" ry="15.4597" style="stroke:#181818;stroke-width:0.5;"/><text fill="#000000" font-family="sans-serif" font-size="14" lengthAdjust="spacing" textLength="47.4824" x="563.2802" y="150.5038">Sign up</text></g><g id="elem_ViewInvoice"><ellipse cx="588.172" cy="330.3344" fill="#F1F1F1" rx="102.172" ry="22.8344" style="stroke:#181818;stroke-width:0.5;"/><text fill="#000000" font-family="sans-serif" font-size="14" lengthAdjust="spacing" textLength="165.7305" x="505.3068" y="334.0629">View VAT invoice for order</text></g><g id="elem_EditInvoice"><ellipse cx="588.1766" cy="404.5944" fill="#F1F1F1" rx="61.6766" ry="15.5944" style="stroke:#181818;stroke-width:0.5;"/><text fill="#000000" font-family="sans-serif" font-size="14" lengthAdjust="spacing" textLength="70.041" x="550.1561" y="409.111">edit invoice</text></g><g id="elem_CreateInvoice"><ellipse cx="588.0883" cy="471.3177" fill="#F1F1F1" rx="69.5883" ry="16.3177" style="stroke:#181818;stroke-width:0.5;"/><text fill="#000000" font-family="sans-serif" font-size="14" lengthAdjust="spacing" textLength="86.3789" x="541.8988" y="475.8343">create invoice</text></g><g id="elem_LoginInvoice"><ellipse cx="1188.1513" cy="333.4517" fill="#F1F1F1" rx="35.1513" ry="15.4517" style="stroke:#181818;stroke-width:0.5;"/><text fill="#000000" font-family="sans-serif" font-size="14" lengthAdjust="spacing" textLength="33.4688" x="1171.4169" y="337.1802">log in</text></g><g id="elem_LoginManageInventory"><ellipse cx="41.1513" cy="308.4517" fill="#F1F1F1" rx="35.1513" ry="15.4517" style="stroke:#181818;stroke-width:0.5;"/><text fill="#000000" font-family="sans-serif" font-size="14" lengthAdjust="spacing" textLength="33.4688" x="24.4169" y="312.1802">log in</text></g><g id="elem_LoginAccountManagement"><ellipse cx="785.1513" cy="21.4517" fill="#F1F1F1" rx="35.1513" ry="15.4517" style="stroke:#181818;stroke-width:0.5;"/><text fill="#000000" font-family="sans-serif" font-size="14" lengthAdjust="spacing" textLength="33.4688" x="768.4169" y="25.1802">log in</text></g><g id="elem_ManageCart"><ellipse cx="986.6945" cy="264.7389" fill="#F1F1F1" rx="66.6945" ry="15.7389" style="stroke:#181818;stroke-width:0.5;"/><text fill="#000000" font-family="sans-serif" font-size="14" lengthAdjust="spacing" textLength="77.8203" x="944.7844" y="269.2555">Manage cart</text></g><g id="elem_Checkout"><ellipse cx="986.3796" cy="190.6759" fill="#F1F1F1" rx="106.3796" ry="23.6759" style="stroke:#181818;stroke-width:0.5;"/><text fill="#000000" font-family="sans-serif" font-size="14" lengthAdjust="spacing" textLength="175.0752" x="898.842" y="194.4044">register order for processing</text></g><!--link Manager to Clerk--><g id="link_Manager_Clerk"><path d="M398.5,234.66 C398.5,246.18 398.5,239.7 398.5,251.21 " fill="none" id="Manager-to-Clerk" style="stroke:#181818;stroke-width:1.0;"/><polygon fill="none" points="398.5,269.21,404.5,251.21,392.5,251.21,398.5,269.21" style="stroke:#181818;stroke-width:1.0;"/></g><!--reverse link LoginManageInventory to ViewStock--><g id="link_LoginManageInventory_ViewStock"><path d="M82.38,308.5 C107.64,308.5 136.54,308.5 165.89,308.5 " fill="none" id="LoginManageInventory-backto-ViewStock" style="stroke:#181818;stroke-width:1.0;stroke-dasharray:7.0,7.0;"/><polygon fill="#181818" points="76.38,308.5,85.38,312.5,81.38,308.5,85.38,304.5,76.38,308.5" style="stroke:#181818;stroke-width:1.0;"/></g><!--reverse link LoginManageInventory to UpdateStock--><g id="link_LoginManageInventory_UpdateStock"><path d="M70.0337,294.141 C83.5637,287.421 95.84,281.76 112,275.5 C133.62,267.13 158.22,259.39 178.72,253.42 " fill="none" id="LoginManageInventory-backto-UpdateStock" style="stroke:#181818;stroke-width:1.0;stroke-dasharray:7.0,7.0;"/><polygon fill="#181818" points="64.66,296.81,74.4999,296.389,69.1381,294.5859,70.9412,289.2241,64.66,296.81" style="stroke:#181818;stroke-width:1.0;"/></g><!--reverse link LoginManageInventory to AddNewbook--><g id="link_LoginManageInventory_AddNewbook"><path d="M50.8656,329.32 C61.0256,351.86 80.52,388.25 112,411.5 C127.82,423.19 147.72,430.91 166.26,435.99 " fill="none" id="LoginManageInventory-backto-AddNewbook" style="stroke:#181818;stroke-width:1.0;stroke-dasharray:7.0,7.0;"/><polygon fill="#181818" points="48.4,323.85,48.4518,333.6987,50.4547,328.4083,55.7451,330.4112,48.4,323.85" style="stroke:#181818;stroke-width:1.0;"/></g><!--reverse link LoginManageInventory to ViewItemHistory--><g id="link_LoginManageInventory_ViewItemHistory"><path d="M70.0576,322.801 C83.5976,329.501 95.86,335.17 112,341.5 C132.33,349.47 155.27,356.97 174.97,362.97 " fill="none" id="LoginManageInventory-backto-ViewItemHistory" style="stroke:#181818;stroke-width:1.0;stroke-dasharray:7.0,7.0;"/><polygon fill="#181818" points="64.68,320.14,70.9724,327.7166,69.1614,322.3575,74.5205,320.5464,64.68,320.14" style="stroke:#181818;stroke-width:1.0;"/></g><!--reverse link LoginManageInventory to DeprecateItem--><g id="link_LoginManageInventory_DeprecateItem"><path d="M51.2866,287.7567 C61.7266,265.6967 81.29,230.55 112,207.5 C125.83,197.12 142.75,189.54 159.15,184.06 " fill="none" id="LoginManageInventory-backto-DeprecateItem" style="stroke:#181818;stroke-width:1.0;stroke-dasharray:7.0,7.0;"/><polygon fill="#181818" points="48.72,293.18,56.1855,286.7561,50.8588,288.6606,48.9544,283.3339,48.72,293.18" style="stroke:#181818;stroke-width:1.0;"/></g><!--link ManageCart to LoginInvoice--><g id="link_ManageCart_LoginInvoice"><path d="M1024.56,277.32 C1063.77,290.88 1119.0493,309.9996 1154.0793,322.1096 " fill="none" id="ManageCart-to-LoginInvoice" style="stroke:#181818;stroke-width:1.0;stroke-dasharray:7.0,7.0;"/><polygon fill="#181818" points="1159.75,324.07,1152.5509,317.349,1155.0244,322.4363,1149.937,324.9099,1159.75,324.07" style="stroke:#181818;stroke-width:1.0;"/></g><!--link Checkout to LoginInvoice--><g id="link_Checkout_LoginInvoice"><path d="M1050.11,209.43 C1064.84,215.32 1080.01,222.64 1093,231.5 C1129.01,256.05 1157.5832,292.0115 1173.2932,313.8215 " fill="none" id="Checkout-to-LoginInvoice" style="stroke:#181818;stroke-width:1.0;stroke-dasharray:7.0,7.0;"/><polygon fill="#181818" points="1176.8,318.69,1174.7854,309.0494,1173.8776,314.6329,1168.2941,313.7252,1176.8,318.69" style="stroke:#181818;stroke-width:1.0;"/></g><!--link ViewInvoice to LoginInvoice--><g id="link_ViewInvoice_LoginInvoice"><path d="M690.1,331.01 C827.15,331.69 1058.8801,332.86 1146.9201,333.3 " fill="none" id="ViewInvoice-to-LoginInvoice" style="stroke:#181818;stroke-width:1.0;stroke-dasharray:7.0,7.0;"/><polygon fill="#181818" points="1152.92,333.33,1143.9401,329.2851,1147.9201,333.305,1143.9001,337.285,1152.92,333.33" style="stroke:#181818;stroke-width:1.0;"/></g><!--link CreateInvoice to LoginInvoice--><g id="link_CreateInvoice_LoginInvoice"><path d="M651.94,464.95 C748.58,453.75 938.57,427.15 1093,377.5 C1118.9,369.17 1141.6539,358.1798 1160.3039,348.2498 " fill="none" id="CreateInvoice-to-LoginInvoice" style="stroke:#181818;stroke-width:1.0;stroke-dasharray:7.0,7.0;"/><polygon fill="#181818" points="1165.6,345.43,1155.776,346.129,1161.1866,347.7799,1159.5358,353.1905,1165.6,345.43" style="stroke:#181818;stroke-width:1.0;"/></g><!--link EditInvoice to LoginInvoice--><g id="link_EditInvoice_LoginInvoice"><path d="M643.92,397.98 C765.77,383.51 1049.7318,349.7971 1147.8918,338.1471 " fill="none" id="EditInvoice-to-LoginInvoice" style="stroke:#181818;stroke-width:1.0;stroke-dasharray:7.0,7.0;"/><polygon fill="#181818" points="1153.85,337.44,1144.4413,334.5286,1148.8848,338.0293,1145.3842,342.4728,1153.85,337.44" style="stroke:#181818;stroke-width:1.0;"/></g><!--link CreateClerkAccount to LoginAccountManagement--><g id="link_CreateClerkAccount_LoginAccountManagement"><path d="M642.54,61.4 C678.85,51.16 719.6657,39.65 749.2457,31.3 " fill="none" id="CreateClerkAccount-to-LoginAccountManagement" style="stroke:#181818;stroke-width:1.0;stroke-dasharray:7.0,7.0;"/><polygon fill="#181818" points="755.02,29.67,745.2718,28.2655,750.208,31.0283,747.4452,35.9646,755.02,29.67" style="stroke:#181818;stroke-width:1.0;"/></g><!--reverse link CreateOwnAccount to Guest--><g id="link_CreateOwnAccount_Guest"><path d="M637.7646,141.9987 C679.9246,138.1087 736.27,132.91 766.41,130.12 " fill="none" id="CreateOwnAccount-backto-Guest" style="stroke:#181818;stroke-width:1.0;"/><polygon fill="#181818" points="631.79,142.55,641.1194,145.7062,636.7689,142.0906,640.3844,137.74,631.79,142.55" style="stroke:#181818;stroke-width:1.0;"/></g><!--reverse link ResetPassword to Customer--><g id="link_ResetPassword_Customer"><path d="M656.6433,223.863 C691.2333,228.653 726.86,233.59 754.28,237.38 " fill="none" id="ResetPassword-backto-Customer" style="stroke:#181818;stroke-width:1.0;"/><polygon fill="#181818" points="650.7,223.04,659.0662,228.2367,655.6527,223.7259,660.1636,220.3123,650.7,223.04" style="stroke:#181818;stroke-width:1.0;"/></g><!--link Customer to ManageCart--><g id="link_Customer_ManageCart"><path d="M815.87,244.94 C845,248.3 884.1496,252.8119 920.5296,257.0119 " fill="none" id="Customer-to-ManageCart" style="stroke:#181818;stroke-width:1.0;"/><polygon fill="#181818" points="926.49,257.7,918.0081,252.6942,921.523,257.1266,917.0906,260.6414,926.49,257.7" style="stroke:#181818;stroke-width:1.0;"/></g><!--link Customer to Checkout--><g id="link_Customer_Checkout"><path d="M815.87,233.86 C842.28,227.11 876.0169,218.4859 910.2869,209.7259 " fill="none" id="Customer-to-Checkout" style="stroke:#181818;stroke-width:1.0;"/><polygon fill="#181818" points="916.1,208.24,906.3897,206.5935,911.2558,209.4783,908.371,214.3443,916.1,208.24" style="stroke:#181818;stroke-width:1.0;"/></g><!--reverse link ViewInvoice to Customer--><g id="link_ViewInvoice_Customer"><path d="M639.6879,307.3677 C676.6979,290.4677 722.53,269.56 754.46,254.98 " fill="none" id="ViewInvoice-backto-Customer" style="stroke:#181818;stroke-width:1.0;"/><polygon fill="#181818" points="634.23,309.86,644.0784,309.7602,638.7782,307.7831,640.7553,302.483,634.23,309.86" style="stroke:#181818;stroke-width:1.0;"/></g><!--reverse link CreateInvoice to Clerk--><g id="link_CreateInvoice_Clerk"><path d="M518.0645,463.7712 C496.5445,458.9612 479.39,451.93 462,437.5 C434.33,414.54 417.98,376.4 408.99,347.53 " fill="none" id="CreateInvoice-backto-Clerk" style="stroke:#181818;stroke-width:1.0;"/><polygon fill="#181818" points="523.92,465.08,516.0092,459.2131,519.0404,463.9893,514.2642,467.0205,523.92,465.08" style="stroke:#181818;stroke-width:1.0;"/></g><!--reverse link ViewStock to Clerk--><g id="link_ViewStock_Clerk"><path d="M287.15,308.5 C322.43,308.5 359.25,308.5 381.83,308.5 " fill="none" id="ViewStock-backto-Clerk" style="stroke:#181818;stroke-width:1.0;"/><polygon fill="#181818" points="281.15,308.5,290.15,312.5,286.15,308.5,290.15,304.5,281.15,308.5" style="stroke:#181818;stroke-width:1.0;"/></g><!--reverse link UpdateStock to Clerk--><g id="link_UpdateStock_Clerk"><path d="M275.0269,254.8662 C295.3969,260.7162 313.86,266.76 335,275.5 C351.55,282.35 369.56,292.12 381.97,299.25 " fill="none" id="UpdateStock-backto-Clerk" style="stroke:#181818;stroke-width:1.0;"/><polygon fill="#181818" points="269.26,253.21,276.8062,259.5389,274.0657,254.5901,279.0145,251.8497,269.26,253.21" style="stroke:#181818;stroke-width:1.0;"/></g><!--reverse link AddNewbook to Clerk--><g id="link_AddNewbook_Clerk"><path d="M287.4468,434.7049 C305.8468,429.6649 319.64,423.47 335,411.5 C356.12,395.04 371.74,369.29 382.09,347.66 " fill="none" id="AddNewbook-backto-Clerk" style="stroke:#181818;stroke-width:1.0;"/><polygon fill="#181818" points="281.66,436.29,291.397,437.7703,286.4824,434.9691,289.2835,430.0545,281.66,436.29" style="stroke:#181818;stroke-width:1.0;"/></g><!--reverse link ViewItemHistory to Clerk--><g id="link_ViewItemHistory_Clerk"><path d="M278.7844,361.4475 C298.3144,355.5575 315.14,349.81 335,341.5 C351.53,334.59 369.53,324.82 381.95,317.71 " fill="none" id="ViewItemHistory-backto-Clerk" style="stroke:#181818;stroke-width:1.0;"/><polygon fill="#181818" points="273.04,363.18,282.8116,364.411,277.827,361.7363,280.5017,356.7517,273.04,363.18" style="stroke:#181818;stroke-width:1.0;"/></g><!--link Clerk to ResetPassword--><g id="link_Clerk_ResetPassword"><path d="M415.16,300.65 C446.14,285.12 510.3864,252.9091 550.8564,232.6191 " fill="none" id="Clerk-to-ResetPassword" style="stroke:#181818;stroke-width:1.0;"/><polygon fill="#181818" points="556.22,229.93,546.3818,230.3879,551.7503,232.1709,549.9673,237.5394,556.22,229.93" style="stroke:#181818;stroke-width:1.0;"/></g><!--link Manager to CreateClerkAccount--><g id="link_Manager_CreateClerkAccount"><path d="M421.77,156.39 C432.22,141.09 445.94,124.58 462,113.5 C478.96,101.81 493.8738,95.3735 513.5138,89.8535 " fill="none" id="Manager-to-CreateClerkAccount" style="stroke:#181818;stroke-width:1.0;"/><polygon fill="#181818" points="519.29,88.23,509.5434,86.8144,514.4765,89.5829,511.708,94.516,519.29,88.23" style="stroke:#181818;stroke-width:1.0;"/></g><!--reverse link DeprecateItem to Manager--><g id="link_DeprecateItem_Manager"><path d="M303.8081,181.9597 C329.7781,185.7197 351.42,188.84 370.97,191.67 " fill="none" id="DeprecateItem-backto-Manager" style="stroke:#181818;stroke-width:1.0;"/><polygon fill="#181818" points="297.87,181.1,306.204,186.3483,302.8184,181.8164,307.3503,178.4309,297.87,181.1" style="stroke:#181818;stroke-width:1.0;"/></g><!--link Manager to EditInvoice--><g id="link_Manager_EditInvoice"><path d="M426.2,218.39 C435.29,227.7 444.54,239.17 450,251.5 C460.77,275.8 444.82,350.22 462,370.5 C477.99,389.38 497.4058,397.2989 521.0958,401.3489 " fill="none" id="Manager-to-EditInvoice" style="stroke:#181818;stroke-width:1.0;"/><polygon fill="#181818" points="527.01,402.36,518.8128,396.9006,522.0815,401.5174,517.4647,404.7862,527.01,402.36" style="stroke:#181818;stroke-width:1.0;"/></g><!--SRC=[VPHBZziW483l_8gvDJqaFo5Ib5RjIdsfs-wTXLa7nGO4UADLs__UuMNZE4eEaPdvPfWdFRu420QSwau1f78eWZAQCSl5cNS8TdpkbVZ3k0Z6mQSHVIZVnz47Cw1Z_sOQ1zkRDqIe1iSUtRbyV-MQcCINJzYcUxT_zmLaxu1B2HujEXuGUjCf3Jp5v6ES4aK_Xa2cuOGKB-yS7zY6E53wFN0FNwB9WturIk1QaIycDMeAwMqD78GmemwP6uXYR9CF8BWB2Spd8ntPnc6dV8p7E4d_BvIdTKQWzqftYJwUK9pDI8vYSRdkUeIhCAXSGB_Dgy8BK5N5ELa-qV4ndh9sj3BMPDR_JeA6YBNJvEBPc4mSfFo6btXiBb011pXHr7JpTCy32JzdMKObMeetNfZuddGremzL5OrYE-V4LkKhcGc7qLNgClKpGRawIP7anJOREFGOm7BlBrJPXFwCeXz5agb7rMaORUFf-wMsS1bOdWZAeDOw9WrFXr_K_JGhgNMfYNDDoXGb7gKAbKt4Hn8iY99Zo-IOAaK1JIs5tMXt-zj3sVJr7ZOtznvrrTnxwAAlzq0sRm3iAbIphFE-rZGrlM7MbcgjRggzLhBr5CtGZOrEpnXiHxlThyU6rOUj0CkncvNvwTgthy6iZ8xhtb_vQoUBvOLe8vdgqMZcXw2LjklVofkbltRIRddHhJ9iNkSfgCL-JkhaTlaOjARjWlm7]--></g></svg>